<svg xmlns="http://www.w3.org/2000/svg" width="24" height="24" viewBox="0 0 24 24">
  <path fill="#52575B" fill-rule="evenodd" d="M18,0 C21.3137085,0 24,2.6862915 24,6 L24,18 C24,21.3137085 21.3137085,24 18,24 L6,24 C2.6862915,24 0,21.3137085 0,18 L0,6 C0,2.6862915 2.6862915,0 6,0 L18,0 Z M22.5,17.5 L17.5,22.5 L18,22.5 C20.4852814,22.5 22.5,20.4852814 22.5,18 L22.5,17.5 Z M22.5,12.5 L12.5,22.5 L15.5,22.5 L22.5,15.5 L22.5,12.5 Z M22.5,7.5 L7.5,22.5 L10.5,22.5 L22.5,10.5 L22.5,7.5 Z M21.6432807,3.35814539 L3.35814539,21.6432807 C3.97982414,22.0948594 4.7215642,22.3912018 5.52643686,22.4753792 L22.4753792,5.52643686 C22.3912018,4.7215642 22.0948594,3.97982414 21.6432807,3.35814539 Z M18.4755755,1.52483167 L1.52483167,18.4755755 C1.60933706,19.2800986 1.90583123,20.02148 2.35743729,20.6428428 L20.6428428,2.35743729 C20.02148,1.90583123 19.2800986,1.60933706 18.4755755,1.52483167 Z M16.5,1.5 L13.5,1.5 L1.5,13.5 L1.5,16.5 L16.5,1.5 Z M11.5,1.5 L8.5,1.5 L1.5,8.5 L1.5,11.5 L11.5,1.5 Z M6.5,1.5 L6,1.5 C3.51471863,1.5 1.5,3.51471863 1.5,6 L1.5,6.5 L6.5,1.5 Z" opacity=".5"/>
</svg>
